<svg xmlns="http://www.w3.org/2000/svg" width="640" height="360" viewBox="0 0 640 360" role="img" aria-label="Safety Outlier Explorer thumbnail">
  <rect width="640" height="360" rx="24" fill="#fffaf4"/>
  <rect x="22" y="22" width="596" height="316" rx="18" fill="#ffffff" stroke="#e0d7cc" stroke-width="2"/>
  <rect x="54" y="58" width="180" height="18" rx="9" fill="#ef4444" opacity="0.9"/>
  <rect x="54" y="92" width="520" height="1.5" fill="#e5e7eb"/>
  <g transform="translate(74 130)">
    <line x1="0" y1="155" x2="470" y2="155" stroke="#cbd5e1" stroke-width="2"/>
    <line x1="0" y1="0" x2="0" y2="155" stroke="#cbd5e1" stroke-width="2"/>
    <path d="M0 130 C55 112 80 68 130 84 S220 150 270 94 S360 40 470 64" fill="none" stroke="#ef4444" stroke-width="8" stroke-linecap="round"/>
    <circle cx="130" cy="84" r="10" fill="#ef4444"/>
    <circle cx="270" cy="94" r="10" fill="#ef4444"/>
    <circle cx="470" cy="64" r="10" fill="#ef4444"/>
    <rect x="28" y="32" width="58" height="123" fill="#ef4444" opacity="0.16"/>
    <rect x="112" y="72" width="58" height="83" fill="#ef4444" opacity="0.16"/>
    <rect x="196" y="48" width="58" height="107" fill="#ef4444" opacity="0.16"/>
    <rect x="280" y="90" width="58" height="65" fill="#ef4444" opacity="0.16"/>
    <rect x="364" y="26" width="58" height="129" fill="#ef4444" opacity="0.16"/>
  </g>
  <text x="54" y="312" font-family="-apple-system, BlinkMacSystemFont, 'Segoe UI', sans-serif" font-size="34" font-weight="700" fill="#1f2937">Safety Outlier Explorer</text>
</svg>
